<?xml version="1.0" standalone="no"?><!DOCTYPE svg PUBLIC "-//W3C//DTD SVG 20010904//EN"
 "http://www.w3.org/TR/2001/REC-SVG-20010904/DTD/svg10.dtd"><svg version="1.0" xmlns="http://www.w3.org/2000/svg" width="509.000000pt" height="509.000000pt" viewBox="0 0 509.000000 509.000000" preserveAspectRatio="xMidYMid meet"><metadata>Created by potrace 1.14, written by Peter Selinger 2001-2017</metadata><g transform="translate(0.000000,509.000000) scale(0.100000,-0.100000)" fill="#000000" stroke="none"><path d="M997 5074 c-75 -24 -138 -67 -215 -149 l-70 -74 -44 22 c-49 25 -52
25 -110 31 -81 8 -132 -19 -240 -126 -54 -54 -98 -103 -98 -108 0 -6 -4 -10
-8 -10 -12 0 -40 -66 -48 -110 -10 -56 -5 -101 14 -137 7 -13 10 -23 7 -23 -4
0 3 -12 15 -27 l21 -27 -43 -45 c-24 -25 -48 -50 -54 -56 -39 -35 -87 -116
-105 -177 -57 -188 32 -396 206 -482 52 -25 95 -38 127 -38 26 1 23 -6 -28
-57 -62 -62 -98 -115 -118 -178 -50 -153 -14 -312 96 -422 120 -120 296 -150
453 -76 59 28 99 66 325 305 162 171 181 190 189 190 6 0 134 -126 1000 -980
243 -239 569 -561 726 -716 l285 -281 -55 -59 c-31 -32 -124 -129 -206 -216
-177 -185 -183 -191 -214 -260 -69 -152 -36 -336 82 -455 50 -50 134 -99 189
-109 37 -8 140 -8 177 -1 64 13 141 59 208 125 38 38 70 67 70 65 2 -4 4 -13
13 -53 35 -167 201 -301 375 -305 127 -3 222 42 330 156 36 38 71 69 77 69 7
0 29 -10 49 -21 51 -30 143 -36 203 -14 36 14 73 45 155 128 59 61 110 121
113 134 4 13 9 23 13 23 9 0 11 9 16 89 3 65 -13 128 -42 162 -7 8 -13 18 -13
22 0 4 31 39 70 79 112 118 152 210 146 342 -6 116 -61 229 -145 295 -45 36
-135 78 -177 83 -16 2 -31 6 -34 9 -3 3 21 35 53 70 130 143 158 312 79 478
-75 156 -262 248 -433 212 -122 -26 -130 -32 -547 -469 l-70 -74 -168 166
c-93 92 -357 352 -587 579 -544 536 -893 880 -1095 1079 -154 153 -161 162
-145 178 10 9 79 81 153 160 74 78 163 172 198 207 34 35 62 68 62 73 0 6 4
10 9 10 7 0 52 80 57 100 0 3 5 14 10 25 5 11 9 65 9 120 0 84 -4 109 -25 155
-65 149 -195 240 -350 245 -129 4 -222 -36 -318 -137 -53 -56 -79 -72 -69 -45
5 14 -11 61 -42 131 -31 66 -111 142 -188 178 -79 37 -199 47 -276 22z"/></g></svg>